<svg width="24" height="24" viewBox="0 0 24 24" fill="none" xmlns="http://www.w3.org/2000/svg">
<g clip-path="url(#clip0_832_5185)">
<path d="M1 18.6084V21.9021C1 22.5608 1.43916 23 2.0979 23H6.4895V19.7063H9.7832V16.4126H11.979L13.5161 14.8755C15.042 15.4071 16.7031 15.405 18.2277 14.8698C19.7523 14.3345 21.0501 13.2977 21.9088 11.9289C22.7675 10.5601 23.1363 8.94048 22.9548 7.33487C22.7734 5.72926 22.0524 4.23277 20.9098 3.0902C19.7672 1.94764 18.2707 1.22664 16.6651 1.04516C15.0595 0.863686 13.4399 1.23247 12.0711 2.09119C10.7023 2.94991 9.6655 4.24772 9.13023 5.77232C8.59495 7.29691 8.59292 8.95803 9.12446 10.4839L1 18.6084Z" stroke="currentColor" stroke-width="1.5" stroke-linecap="round" stroke-linejoin="round"/>
<path d="M16.9196 7.62949C17.2227 7.62949 17.4685 7.38371 17.4685 7.08054C17.4685 6.77736 17.2227 6.53159 16.9196 6.53159C16.6164 6.53159 16.3706 6.77736 16.3706 7.08054C16.3706 7.38371 16.6164 7.62949 16.9196 7.62949Z" stroke="currentColor" stroke-width="1.5" stroke-linecap="round" stroke-linejoin="round"/>
</g>
<defs>
<clipPath id="clip0_832_5185">
<rect width="24" height="24" fill="white"/>
</clipPath>
</defs>
</svg>
