<svg width="24" height="24" viewBox="0 0 24 24" fill="none" xmlns="http://www.w3.org/2000/svg">
<path d="M2.00352 10.583C1.95494 10 2.41503 9.5 3.00007 9.5L4.91327 9.5C5.46557 9.5 5.91327 9.9477 5.91327 10.5L5.91327 20.5C5.91327 21.0523 5.46557 21.5 4.91327 21.5L3.8334 21.5C3.31331 21.5 2.88005 21.1013 2.83685 20.583L2.00352 10.583Z" stroke="currentColor" stroke-width="1.5" stroke-linecap="round" stroke-linejoin="round"/>
<path d="M8.91406 10.6873C8.91406 10.2694 9.17376 9.8954 9.55171 9.71725C10.376 9.3287 11.7805 8.5469 12.4141 7.49025C13.2306 6.12845 13.3846 3.668 13.4097 3.1044C13.4132 3.0255 13.4109 2.9465 13.4218 2.8683C13.5571 1.89225 15.4412 3.03245 16.1641 4.23805C16.5564 4.89235 16.6067 5.752 16.5654 6.42315C16.5213 7.14125 16.3107 7.83495 16.1042 8.52415L15.6641 9.99225L21.0925 9.99225C21.7557 9.99225 22.2351 10.6259 22.0549 11.264L19.3697 20.7718C19.2481 21.2025 18.855 21.5 18.4074 21.5L9.91406 21.5C9.36176 21.5 8.91406 21.0523 8.91406 20.5L8.91406 10.6873Z" stroke="currentColor" stroke-width="1.5" stroke-linecap="round" stroke-linejoin="round"/>
</svg>
