<svg width="194" height="42" viewBox="0 0 194 42" fill="none" xmlns="http://www.w3.org/2000/svg">
<path d="M0.486 33.5V4.1H13.212C15.844 4.1 18.112 4.534 20.016 5.402C21.92 6.242 23.39 7.46 24.426 9.056C25.462 10.652 25.98 12.556 25.98 14.768C25.98 16.952 25.462 18.842 24.426 20.438C23.39 22.006 21.92 23.21 20.016 24.05C18.112 24.89 15.844 25.31 13.212 25.31H4.266L7.29 22.328V33.5H0.486ZM19.176 33.5L11.826 22.832H19.092L26.526 33.5H19.176ZM7.29 23.084L4.266 19.892H12.834C14.934 19.892 16.502 19.444 17.538 18.548C18.574 17.624 19.092 16.364 19.092 14.768C19.092 13.144 18.574 11.884 17.538 10.988C16.502 10.092 14.934 9.644 12.834 9.644H4.266L7.29 6.41V23.084ZM44.5637 33.5V29.09L44.1437 28.124V20.228C44.1437 18.828 43.7097 17.736 42.8417 16.952C42.0017 16.168 40.6997 15.776 38.9357 15.776C37.7317 15.776 36.5417 15.972 35.3657 16.364C34.2177 16.728 33.2377 17.232 32.4257 17.876L30.0737 13.298C31.3057 12.43 32.7897 11.758 34.5257 11.282C36.2617 10.806 38.0257 10.568 39.8177 10.568C43.2617 10.568 45.9357 11.38 47.8397 13.004C49.7437 14.628 50.6957 17.162 50.6957 20.606V33.5H44.5637ZM37.6757 33.836C35.9117 33.836 34.3997 33.542 33.1397 32.954C31.8797 32.338 30.9137 31.512 30.2417 30.476C29.5697 29.44 29.2337 28.278 29.2337 26.99C29.2337 25.646 29.5557 24.47 30.1997 23.462C30.8717 22.454 31.9217 21.67 33.3497 21.11C34.7777 20.522 36.6397 20.228 38.9357 20.228H44.9417V24.05H39.6497C38.1097 24.05 37.0457 24.302 36.4577 24.806C35.8977 25.31 35.6177 25.94 35.6177 26.696C35.6177 27.536 35.9397 28.208 36.5837 28.712C37.2557 29.188 38.1657 29.426 39.3137 29.426C40.4057 29.426 41.3857 29.174 42.2537 28.67C43.1217 28.138 43.7517 27.368 44.1437 26.36L45.1517 29.384C44.6757 30.84 43.8077 31.946 42.5477 32.702C41.2877 33.458 39.6637 33.836 37.6757 33.836ZM65.8656 33.836C63.2056 33.836 61.1336 33.164 59.6496 31.82C58.1656 30.448 57.4236 28.418 57.4236 25.73V5.906H63.9756V25.646C63.9756 26.598 64.2276 27.34 64.7316 27.872C65.2356 28.376 65.9216 28.628 66.7896 28.628C67.8256 28.628 68.7076 28.348 69.4356 27.788L71.1996 32.408C70.5276 32.884 69.7156 33.248 68.7636 33.5C67.8396 33.724 66.8736 33.836 65.8656 33.836ZM53.9376 16.448V11.408H69.6036V16.448H53.9376ZM74.8775 33.5V10.904H81.4295V33.5H74.8775ZM78.1535 7.754C76.9495 7.754 75.9695 7.404 75.2135 6.704C74.4575 6.004 74.0795 5.136 74.0795 4.1C74.0795 3.064 74.4575 2.196 75.2135 1.496C75.9695 0.795998 76.9495 0.445997 78.1535 0.445997C79.3575 0.445997 80.3375 0.781998 81.0935 1.454C81.8495 2.098 82.2275 2.938 82.2275 3.974C82.2275 5.066 81.8495 5.976 81.0935 6.704C80.3655 7.404 79.3855 7.754 78.1535 7.754ZM101.244 10.568C103.036 10.568 104.632 10.932 106.032 11.66C107.46 12.36 108.58 13.452 109.392 14.936C110.204 16.392 110.61 18.268 110.61 20.564V33.5H104.058V21.572C104.058 19.752 103.652 18.408 102.84 17.54C102.056 16.672 100.936 16.238 99.4803 16.238C98.4443 16.238 97.5063 16.462 96.6663 16.91C95.8543 17.33 95.2103 17.988 94.7343 18.884C94.2863 19.78 94.0623 20.928 94.0623 22.328V33.5H87.5103V10.904H93.7683V17.162L92.5923 15.272C93.4043 13.76 94.5663 12.598 96.0783 11.786C97.5903 10.974 99.3123 10.568 101.244 10.568ZM127.339 41.984C125.211 41.984 123.153 41.718 121.165 41.186C119.205 40.682 117.567 39.912 116.251 38.876L118.855 34.172C119.807 34.956 121.011 35.572 122.467 36.02C123.951 36.496 125.407 36.734 126.835 36.734C129.159 36.734 130.839 36.216 131.875 35.18C132.939 34.144 133.471 32.604 133.471 30.56V27.158L133.891 21.488L133.807 15.776V10.904H140.023V29.72C140.023 33.92 138.931 37.014 136.747 39.002C134.563 40.99 131.427 41.984 127.339 41.984ZM126.331 32.408C124.231 32.408 122.327 31.96 120.619 31.064C118.939 30.14 117.581 28.866 116.545 27.242C115.537 25.59 115.033 23.672 115.033 21.488C115.033 19.276 115.537 17.358 116.545 15.734C117.581 14.082 118.939 12.808 120.619 11.912C122.327 11.016 124.231 10.568 126.331 10.568C128.235 10.568 129.915 10.96 131.371 11.744C132.827 12.5 133.961 13.69 134.773 15.314C135.585 16.91 135.991 18.968 135.991 21.488C135.991 23.98 135.585 26.038 134.773 27.662C133.961 29.258 132.827 30.448 131.371 31.232C129.915 32.016 128.235 32.408 126.331 32.408ZM127.633 27.032C128.781 27.032 129.803 26.808 130.699 26.36C131.595 25.884 132.295 25.226 132.799 24.386C133.303 23.546 133.555 22.58 133.555 21.488C133.555 20.368 133.303 19.402 132.799 18.59C132.295 17.75 131.595 17.106 130.699 16.658C129.803 16.182 128.781 15.944 127.633 15.944C126.485 15.944 125.463 16.182 124.567 16.658C123.671 17.106 122.957 17.75 122.425 18.59C121.921 19.402 121.669 20.368 121.669 21.488C121.669 22.58 121.921 23.546 122.425 24.386C122.957 25.226 123.671 25.884 124.567 26.36C125.463 26.808 126.485 27.032 127.633 27.032Z" fill="#373737"/>
<path d="M155.656 33.836C153.78 33.836 152.1 33.472 150.616 32.744C149.16 32.016 148.026 30.91 147.214 29.426C146.402 27.914 145.996 25.996 145.996 23.672V10.904H152.548V22.706C152.548 24.582 152.94 25.968 153.724 26.864C154.536 27.732 155.67 28.166 157.126 28.166C158.134 28.166 159.03 27.956 159.814 27.536C160.598 27.088 161.214 26.416 161.662 25.52C162.11 24.596 162.334 23.448 162.334 22.076V10.904H168.886V33.5H162.67V27.284L163.804 29.09C163.048 30.658 161.928 31.848 160.444 32.66C158.988 33.444 157.392 33.836 155.656 33.836ZM182.558 33.836C180.626 33.836 178.764 33.612 176.972 33.164C175.208 32.688 173.808 32.1 172.772 31.4L174.956 26.696C175.992 27.34 177.21 27.872 178.61 28.292C180.038 28.684 181.438 28.88 182.81 28.88C184.322 28.88 185.386 28.698 186.002 28.334C186.646 27.97 186.968 27.466 186.968 26.822C186.968 26.29 186.716 25.898 186.212 25.646C185.736 25.366 185.092 25.156 184.28 25.016C183.468 24.876 182.572 24.736 181.592 24.596C180.64 24.456 179.674 24.274 178.694 24.05C177.714 23.798 176.818 23.434 176.006 22.958C175.194 22.482 174.536 21.838 174.032 21.026C173.556 20.214 173.318 19.164 173.318 17.876C173.318 16.448 173.724 15.188 174.536 14.096C175.376 13.004 176.58 12.15 178.148 11.534C179.716 10.89 181.592 10.568 183.776 10.568C185.316 10.568 186.884 10.736 188.48 11.072C190.076 11.408 191.406 11.898 192.47 12.542L190.286 17.204C189.194 16.56 188.088 16.126 186.968 15.902C185.876 15.65 184.812 15.524 183.776 15.524C182.32 15.524 181.256 15.72 180.584 16.112C179.912 16.504 179.576 17.008 179.576 17.624C179.576 18.184 179.814 18.604 180.29 18.884C180.794 19.164 181.452 19.388 182.264 19.556C183.076 19.724 183.958 19.878 184.91 20.018C185.89 20.13 186.87 20.312 187.85 20.564C188.83 20.816 189.712 21.18 190.496 21.656C191.308 22.104 191.966 22.734 192.47 23.546C192.974 24.33 193.226 25.366 193.226 26.654C193.226 28.054 192.806 29.3 191.966 30.392C191.126 31.456 189.908 32.296 188.312 32.912C186.744 33.528 184.826 33.836 182.558 33.836Z" fill="#1F74E7"/>
</svg>
